<svg width="45" height="49" viewBox="0 0 45 49" fill="none" xmlns="http://www.w3.org/2000/svg">
<mask id="path-1-outside-1_9_8552" maskUnits="userSpaceOnUse" x="-2" y="-2" width="49" height="53" fill="black">
<rect fill="white" x="-2" y="-2" width="49" height="53"/>
<path d="M6.83301 48V11.584C6.18848 12.3538 5.30225 12.9805 4.17432 13.4639C3.04639 13.9294 1.98112 14.1621 0.978516 14.1621V6.61572C1.92741 6.47249 2.94792 6.16813 4.04004 5.70264C5.13216 5.21924 6.14372 4.56576 7.07471 3.74219C8.0236 2.90072 8.7487 1.88916 9.25 0.70752H16.8501V48H6.83301ZM32.104 48.4297C28.1115 48.4297 25.0231 47.3107 22.8389 45.0728C20.6725 42.8348 19.5894 39.6121 19.5894 35.4048V14.0815C19.5894 9.64144 20.6188 6.23975 22.6777 3.87646C24.7546 1.49528 27.8966 0.304688 32.104 0.304688C36.3293 0.304688 39.4714 1.49528 41.5303 3.87646C43.5892 6.23975 44.6187 9.64144 44.6187 14.0815V35.4048C44.6187 39.6121 43.5355 42.8348 41.3691 45.0728C39.2028 47.3107 36.1144 48.4297 32.104 48.4297ZM32.104 39.7285C32.8381 39.7285 33.411 39.3973 33.8228 38.7349C34.2345 38.0724 34.4404 37.3294 34.4404 36.5059V13.1685C34.4404 12.0584 34.3151 11.0916 34.0645 10.2681C33.8317 9.4266 33.1782 9.00586 32.104 9.00586C31.0298 9.00586 30.3674 9.4266 30.1167 10.2681C29.884 11.0916 29.7676 12.0584 29.7676 13.1685V36.5059C29.7676 37.3294 29.9735 38.0724 30.3853 38.7349C30.8149 39.3973 31.3879 39.7285 32.104 39.7285Z"/>
</mask>
<path d="M6.83301 48H4.83301V50H6.83301V48ZM6.83301 11.584H8.83301V6.07952L5.29949 10.3001L6.83301 11.584ZM4.17432 13.4639L4.93729 15.3126L4.94976 15.3075L4.96216 15.3022L4.17432 13.4639ZM0.978516 14.1621H-1.02148V16.1621H0.978516V14.1621ZM0.978516 6.61572L0.68001 4.63812L-1.02148 4.89495V6.61572H0.978516ZM4.04004 5.70264L4.82424 7.54248L4.83692 7.53708L4.84953 7.53149L4.04004 5.70264ZM7.07471 3.74219L8.39986 5.24018L8.40168 5.23856L7.07471 3.74219ZM9.25 0.70752V-1.29248H7.92595L7.40884 -0.0735798L9.25 0.70752ZM16.8501 0.70752H18.8501V-1.29248H16.8501V0.70752ZM16.8501 48V50H18.8501V48H16.8501ZM8.83301 48V11.584H4.83301V48H8.83301ZM5.29949 10.3001C4.89647 10.7815 4.28894 11.2388 3.38648 11.6256L4.96216 15.3022C6.31555 14.7221 7.48049 13.9262 8.36652 12.8679L5.29949 10.3001ZM3.41134 11.6151C2.47424 12.0019 1.66918 12.1621 0.978516 12.1621V16.1621C2.29306 16.1621 3.61853 15.8569 4.93729 15.3126L3.41134 11.6151ZM2.97852 14.1621V6.61572H-1.02148V14.1621H2.97852ZM1.27702 8.59332C2.42692 8.41975 3.6118 8.05926 4.82424 7.54248L3.25584 3.86279C2.28404 4.277 1.4279 4.52524 0.68001 4.63812L1.27702 8.59332ZM4.84953 7.53149C6.13707 6.9616 7.32131 6.19428 8.39985 5.24018L5.74956 2.24419C4.96612 2.93723 4.12725 3.47688 3.23055 3.87378L4.84953 7.53149ZM8.40168 5.23856C9.57577 4.19739 10.4752 2.94052 11.0912 1.48862L7.40884 -0.0735798C7.02219 0.837805 6.47143 1.60404 5.74773 2.24581L8.40168 5.23856ZM9.25 2.70752H16.8501V-1.29248H9.25V2.70752ZM14.8501 0.70752V48H18.8501V0.70752H14.8501ZM16.8501 46H6.83301V50H16.8501V46ZM22.8389 45.0728L21.4018 46.4638L21.4076 46.4697L22.8389 45.0728ZM22.6777 3.87646L21.1705 2.56186L21.1698 2.56269L22.6777 3.87646ZM41.5303 3.87646L40.0174 5.1846L40.0223 5.19024L41.5303 3.87646ZM34.0645 10.2681L32.1368 10.8012L32.1437 10.8259L32.1511 10.8504L34.0645 10.2681ZM30.1167 10.2681L28.1999 9.69711L28.1959 9.71061L28.1921 9.72415L30.1167 10.2681ZM30.3853 38.7349L28.6867 39.7907L28.6968 39.8071L28.7073 39.8232L30.3853 38.7349ZM32.104 46.4297C28.4934 46.4297 25.9809 45.4287 24.2702 43.6758L21.4076 46.4697C24.0653 49.1927 27.7296 50.4297 32.104 50.4297V46.4297ZM24.2759 43.6817C22.5823 41.9321 21.5894 39.2793 21.5894 35.4048H17.5894C17.5894 39.945 18.7628 43.7375 21.4018 46.4638L24.2759 43.6817ZM21.5894 35.4048V14.0815H17.5894V35.4048H21.5894ZM21.5894 14.0815C21.5894 9.92515 22.5542 7.06295 24.1857 5.19024L21.1698 2.56269C18.6834 5.41654 17.5894 9.35773 17.5894 14.0815H21.5894ZM24.185 5.19106C25.7666 3.37772 28.272 2.30469 32.104 2.30469V-1.69531C27.5213 -1.69531 23.7426 -0.387156 21.1705 2.56186L24.185 5.19106ZM32.104 2.30469C35.9582 2.30469 38.4569 3.37987 40.0174 5.18459L43.0432 2.56834C40.4858 -0.389315 36.7003 -1.69531 32.104 -1.69531V2.30469ZM40.0223 5.19024C41.6538 7.06295 42.6187 9.92515 42.6187 14.0815H46.6187C46.6187 9.35773 45.5246 5.41654 43.0383 2.56269L40.0223 5.19024ZM42.6187 14.0815V35.4048H46.6187V14.0815H42.6187ZM42.6187 35.4048C42.6187 39.2793 41.6257 41.9321 39.9321 43.6817L42.8062 46.4638C45.4452 43.7375 46.6187 39.945 46.6187 35.4048H42.6187ZM39.9321 43.6817C38.243 45.4267 35.7365 46.4297 32.104 46.4297V50.4297C36.4924 50.4297 40.1626 49.1947 42.8062 46.4638L39.9321 43.6817ZM32.104 41.7285C33.58 41.7285 34.7721 40.9959 35.5213 39.7907L32.1242 37.679C32.0915 37.7316 32.0693 37.7555 32.0631 37.7618C32.0578 37.7671 32.0644 37.7595 32.0832 37.7486C32.092 37.7436 32.1014 37.7389 32.1109 37.7351C32.1203 37.7313 32.128 37.729 32.133 37.7277C32.1438 37.725 32.1364 37.7285 32.104 37.7285V41.7285ZM35.5213 39.7907C36.1413 38.7933 36.4404 37.6808 36.4404 36.5059H32.4404C32.4404 36.978 32.3277 37.3515 32.1242 37.679L35.5213 39.7907ZM36.4404 36.5059V13.1685H32.4404V36.5059H36.4404ZM36.4404 13.1685C36.4404 11.915 36.2997 10.7435 35.9778 9.68574L32.1511 10.8504C32.3305 11.4397 32.4404 12.2018 32.4404 13.1685H36.4404ZM35.9921 9.73489C35.762 8.90326 35.274 8.14942 34.4825 7.6398C33.7316 7.15635 32.8836 7.00586 32.104 7.00586V11.0059C32.2449 11.0059 32.3246 11.0199 32.3576 11.028C32.3879 11.0353 32.3657 11.0343 32.3171 11.003C32.2648 10.9694 32.2132 10.9206 32.1742 10.8651C32.1374 10.8127 32.1317 10.7825 32.1368 10.8012L35.9921 9.73489ZM32.104 7.00586C31.3225 7.00586 30.4788 7.15708 29.7292 7.63315C28.9421 8.13309 28.4454 8.87312 28.1999 9.69711L32.0335 10.839C32.04 10.8172 32.0357 10.8419 32.0023 10.8881C31.9669 10.937 31.9203 10.9801 31.8738 11.0097C31.8306 11.0371 31.8134 11.0365 31.8465 11.0285C31.882 11.0199 31.9633 11.0059 32.104 11.0059V7.00586ZM28.1921 9.72415C27.897 10.7681 27.7676 11.9259 27.7676 13.1685H31.7676C31.7676 12.191 31.8709 11.4152 32.0413 10.812L28.1921 9.72415ZM27.7676 13.1685V36.5059H31.7676V13.1685H27.7676ZM27.7676 36.5059C27.7676 37.6808 28.0667 38.7933 28.6867 39.7907L32.0838 37.679C31.8803 37.3515 31.7676 36.978 31.7676 36.5059H27.7676ZM28.7073 39.8232C29.461 40.9851 30.6318 41.7285 32.104 41.7285V37.7285C32.0802 37.7285 32.0781 37.7259 32.0915 37.7293C32.1057 37.733 32.1229 37.7398 32.1382 37.7486C32.1529 37.7571 32.1539 37.7606 32.1422 37.749C32.1297 37.7366 32.1018 37.706 32.0632 37.6465L28.7073 39.8232Z" fill="#020036" mask="url(#path-1-outside-1_9_8552)"/>
</svg>
